{
    "asset" : {
        "generator" : "Khronos glTF Blender I/O v1.7.33",
        "version" : "2.0"
    },
    "extensionsUsed" : [
        "KHR_materials_transmission"
    ],
    "scene" : 0,
    "scenes" : [
        {
            "name" : "Scene",
            "nodes" : [
                0
            ]
        }
    ],
    "nodes" : [
        {
            "mesh" : 0,
            "name" : "04.Skys05Plane.001",
            "rotation" : [
                0,
                -0.7071068286895752,
                0,
                0.7071068286895752
            ],
            "scale" : [
                1.3373258113861084,
                1.3079591989517212,
                4.060061931610107
            ],
            "translation" : [
                -160.10012817382812,
                4.35363245010376,
                -194.4498748779297
            ]
        }
    ],
    "materials" : [
        {
            "doubleSided" : true,
            "name" : "01_Grey.001",
            "pbrMetallicRoughness" : {
                "baseColorFactor" : [
                    0.007193580269813538,
                    0.007193580269813538,
                    0.007193580269813538,
                    1
                ],
                "metallicFactor" : 0,
                "roughnessFactor" : 0
            }
        },
        {
            "alphaMode" : "BLEND",
            "doubleSided" : true,
            "name" : "01_GlassELEV.001",
            "pbrMetallicRoughness" : {
                "baseColorFactor" : [
                    0.08650047332048416,
                    0.19120171666145325,
                    0.4564110040664673,
                    1
                ],
                "metallicFactor" : 0,
                "roughnessFactor" : 0
            }
        },
        {
            "doubleSided" : true,
            "name" : "01_Black.001",
            "pbrMetallicRoughness" : {
                "baseColorFactor" : [
                    0.057805418968200684,
                    0.057805437594652176,
                    0.05780543386936188,
                    1
                ],
                "metallicFactor" : 0.5,
                "roughnessFactor" : 0.5
            }
        },
        {
            "doubleSided" : true,
            "emissiveFactor" : [
                1,
                1,
                1
            ],
            "emissiveTexture" : {
                "index" : 0
            },
            "name" : "LightSkyssINGLE.002",
            "pbrMetallicRoughness" : {}
        },
        {
            "doubleSided" : true,
            "name" : "01_BlackWatch.001",
            "pbrMetallicRoughness" : {
                "baseColorFactor" : [
                    0,
                    0,
                    0,
                    1
                ],
                "metallicFactor" : 0,
                "roughnessFactor" : 0.5
            }
        },
        {
            "alphaMode" : "BLEND",
            "doubleSided" : true,
            "extensions" : {
                "KHR_materials_transmission" : {
                    "transmissionFactor" : 1
                }
            },
            "name" : "01_Glass.001",
            "pbrMetallicRoughness" : {
                "baseColorFactor" : [
                    0.800000011920929,
                    0.800000011920929,
                    0.800000011920929,
                    1
                ],
                "metallicFactor" : 0,
                "roughnessFactor" : 0.5
            }
        }
    ],
    "meshes" : [
        {
            "name" : "04.Skys05Plane.002",
            "primitives" : [
                {
                    "attributes" : {
                        "POSITION" : 0,
                        "NORMAL" : 1,
                        "TEXCOORD_0" : 2
                    },
                    "indices" : 3,
                    "material" : 0
                },
                {
                    "attributes" : {
                        "POSITION" : 4,
                        "NORMAL" : 5,
                        "TEXCOORD_0" : 6
                    },
                    "indices" : 7,
                    "material" : 1
                },
                {
                    "attributes" : {
                        "POSITION" : 8,
                        "NORMAL" : 9,
                        "TEXCOORD_0" : 10
                    },
                    "indices" : 11,
                    "material" : 2
                },
                {
                    "attributes" : {
                        "POSITION" : 12,
                        "NORMAL" : 13,
                        "TEXCOORD_0" : 14
                    },
                    "indices" : 15,
                    "material" : 3
                },
                {
                    "attributes" : {
                        "POSITION" : 16,
                        "NORMAL" : 17,
                        "TEXCOORD_0" : 18
                    },
                    "indices" : 19,
                    "material" : 4
                },
                {
                    "attributes" : {
                        "POSITION" : 20,
                        "NORMAL" : 21,
                        "TEXCOORD_0" : 22
                    },
                    "indices" : 23,
                    "material" : 5
                }
            ]
        }
    ],
    "textures" : [
        {
            "sampler" : 0,
            "source" : 0
        }
    ],
    "images" : [
        {
            "bufferView" : 16,
            "mimeType" : "image/jpeg",
            "name" : "light2"
        }
    ],
    "accessors" : [
        {
            "bufferView" : 0,
            "componentType" : 5126,
            "count" : 2783,
            "max" : [
                1.5870935916900635,
                3.1518754959106445,
                1.2224236726760864
            ],
            "min" : [
                -1.4021551609039307,
                -2.979954719543457,
                -1.2391148805618286
            ],
            "type" : "VEC3"
        },
        {
            "bufferView" : 1,
            "componentType" : 5126,
            "count" : 2783,
            "type" : "VEC3"
        },
        {
            "bufferView" : 2,
            "componentType" : 5126,
            "count" : 2783,
            "type" : "VEC2"
        },
        {
            "bufferView" : 3,
            "componentType" : 5123,
            "count" : 5238,
            "type" : "SCALAR"
        },
        {
            "bufferView" : 4,
            "componentType" : 5126,
            "count" : 224,
            "max" : [
                1.0293610095977783,
                -2.0921478271484375,
                0.9846159815788269
            ],
            "min" : [
                -1.0293614864349365,
                -2.8553409576416016,
                -0.8125819563865662
            ],
            "type" : "VEC3"
        },
        {
            "bufferView" : 5,
            "componentType" : 5126,
            "count" : 224,
            "type" : "VEC3"
        },
        {
            "bufferView" : 6,
            "componentType" : 5126,
            "count" : 224,
            "type" : "VEC2"
        },
        {
            "bufferView" : 7,
            "componentType" : 5123,
            "count" : 336,
            "type" : "SCALAR"
        },
        {
            "bufferView" : 8,
            "componentType" : 5126,
            "count" : 65252,
            "max" : [
                1.1153883934020996,
                2.5786168575286865,
                1.0220005512237549
            ],
            "min" : [
                -1.1153888702392578,
                -2.8653409481048584,
                -1.0219995975494385
            ],
            "type" : "VEC3"
        },
        {
            "bufferView" : 9,
            "componentType" : 5126,
            "count" : 65252,
            "type" : "VEC3"
        },
        {
            "bufferView" : 10,
            "componentType" : 5126,
            "count" : 65252,
            "type" : "VEC2"
        },
        {
            "bufferView" : 11,
            "componentType" : 5123,
            "count" : 113292,
            "type" : "SCALAR"
        },
        {
            "bufferView" : 12,
            "componentType" : 5126,
            "count" : 476,
            "max" : [
                1.2046374082565308,
                2.443734645843506,
                1.0088443756103516
            ],
            "min" : [
                -1.075193166732788,
                -2.0021207332611084,
                -1.0120863914489746
            ],
            "type" : "VEC3"
        },
        {
            "bufferView" : 13,
            "componentType" : 5126,
            "count" : 476,
            "type" : "VEC3"
        },
        {
            "bufferView" : 14,
            "componentType" : 5126,
            "count" : 476,
            "type" : "VEC2"
        },
        {
            "bufferView" : 15,
            "componentType" : 5123,
            "count" : 714,
            "type" : "SCALAR"
        },
        {
            "bufferView" : 17,
            "componentType" : 5126,
            "count" : 436,
            "max" : [
                1.2046374082565308,
                2.443734645843506,
                1.0088443756103516
            ],
            "min" : [
                -1.075193166732788,
                -2.0021207332611084,
                -1.0120863914489746
            ],
            "type" : "VEC3"
        },
        {
            "bufferView" : 18,
            "componentType" : 5126,
            "count" : 436,
            "type" : "VEC3"
        },
        {
            "bufferView" : 19,
            "componentType" : 5126,
            "count" : 436,
            "type" : "VEC2"
        },
        {
            "bufferView" : 20,
            "componentType" : 5123,
            "count" : 654,
            "type" : "SCALAR"
        },
        {
            "bufferView" : 21,
            "componentType" : 5126,
            "count" : 5296,
            "max" : [
                1.2292218208312988,
                2.5583481788635254,
                1.020462155342102
            ],
            "min" : [
                -1.1107182502746582,
                -2.8553409576416016,
                -1.0204612016677856
            ],
            "type" : "VEC3"
        },
        {
            "bufferView" : 22,
            "componentType" : 5126,
            "count" : 5296,
            "type" : "VEC3"
        },
        {
            "bufferView" : 23,
            "componentType" : 5126,
            "count" : 5296,
            "type" : "VEC2"
        },
        {
            "bufferView" : 24,
            "componentType" : 5123,
            "count" : 7944,
            "type" : "SCALAR"
        }
    ],
    "bufferViews" : [
        {
            "buffer" : 0,
            "byteLength" : 33396,
            "byteOffset" : 0
        },
        {
            "buffer" : 0,
            "byteLength" : 33396,
            "byteOffset" : 33396
        },
        {
            "buffer" : 0,
            "byteLength" : 22264,
            "byteOffset" : 66792
        },
        {
            "buffer" : 0,
            "byteLength" : 10476,
            "byteOffset" : 89056
        },
        {
            "buffer" : 0,
            "byteLength" : 2688,
            "byteOffset" : 99532
        },
        {
            "buffer" : 0,
            "byteLength" : 2688,
            "byteOffset" : 102220
        },
        {
            "buffer" : 0,
            "byteLength" : 1792,
            "byteOffset" : 104908
        },
        {
            "buffer" : 0,
            "byteLength" : 672,
            "byteOffset" : 106700
        },
        {
            "buffer" : 0,
            "byteLength" : 783024,
            "byteOffset" : 107372
        },
        {
            "buffer" : 0,
            "byteLength" : 783024,
            "byteOffset" : 890396
        },
        {
            "buffer" : 0,
            "byteLength" : 522016,
            "byteOffset" : 1673420
        },
        {
            "buffer" : 0,
            "byteLength" : 226584,
            "byteOffset" : 2195436
        },
        {
            "buffer" : 0,
            "byteLength" : 5712,
            "byteOffset" : 2422020
        },
        {
            "buffer" : 0,
            "byteLength" : 5712,
            "byteOffset" : 2427732
        },
        {
            "buffer" : 0,
            "byteLength" : 3808,
            "byteOffset" : 2433444
        },
        {
            "buffer" : 0,
            "byteLength" : 1428,
            "byteOffset" : 2437252
        },
        {
            "buffer" : 0,
            "byteLength" : 257647,
            "byteOffset" : 2438680
        },
        {
            "buffer" : 0,
            "byteLength" : 5232,
            "byteOffset" : 2696328
        },
        {
            "buffer" : 0,
            "byteLength" : 5232,
            "byteOffset" : 2701560
        },
        {
            "buffer" : 0,
            "byteLength" : 3488,
            "byteOffset" : 2706792
        },
        {
            "buffer" : 0,
            "byteLength" : 1308,
            "byteOffset" : 2710280
        },
        {
            "buffer" : 0,
            "byteLength" : 63552,
            "byteOffset" : 2711588
        },
        {
            "buffer" : 0,
            "byteLength" : 63552,
            "byteOffset" : 2775140
        },
        {
            "buffer" : 0,
            "byteLength" : 42368,
            "byteOffset" : 2838692
        },
        {
            "buffer" : 0,
            "byteLength" : 15888,
            "byteOffset" : 2881060
        }
    ],
    "samplers" : [
        {
            "magFilter" : 9729,
            "minFilter" : 9987
        }
    ],
    "buffers" : [
        {
            "byteLength" : 2896948,
            "uri" : "data:application/octet-stream;base64,"
        }
    ]
}
