{
    "asset" : {
        "generator" : "Khronos glTF Blender I/O v1.7.33",
        "version" : "2.0"
    },
    "scene" : 0,
    "scenes" : [
        {
            "name" : "Scene",
            "nodes" : [
                0
            ]
        }
    ],
    "nodes" : [
        {
            "mesh" : 0,
            "name" : "antenna",
            "rotation" : [
                0.7071068286895752,
                0,
                0,
                0.7071068286895752
            ],
            "scale" : [
                0.5,
                0.5,
                0.5
            ],
            "translation" : [
                -0.9809900522232056,
                29.042966842651367,
                20.504261016845703
            ]
        }
    ],
    "materials" : [
        {
            "alphaMode" : "BLEND",
            "doubleSided" : true,
            "emissiveFactor" : [
                0,
                0.4513777793001239,
                0.6000000238418579
            ],
            "name" : "shipmat",
            "pbrMetallicRoughness" : {
                "baseColorFactor" : [
                    0,
                    0.01463985349982977,
                    0.275709867477417,
                    1
                ],
                "metallicFactor" : 0
            }
        }
    ],
    "meshes" : [
        {
            "name" : "ship.004",
            "primitives" : [
                {
                    "attributes" : {
                        "POSITION" : 0,
                        "NORMAL" : 1,
                        "TEXCOORD_0" : 2
                    },
                    "indices" : 3,
                    "material" : 0
                }
            ]
        }
    ],
    "accessors" : [
        {
            "bufferView" : 0,
            "componentType" : 5126,
            "count" : 711,
            "max" : [
                2.0586960315704346,
                2.0670394897460938,
                1.9595909118652344
            ],
            "min" : [
                -2.070403814315796,
                -2.0621604919433594,
                -2.2973060607910156
            ],
            "type" : "VEC3"
        },
        {
            "bufferView" : 1,
            "componentType" : 5126,
            "count" : 711,
            "type" : "VEC3"
        },
        {
            "bufferView" : 2,
            "componentType" : 5126,
            "count" : 711,
            "type" : "VEC2"
        },
        {
            "bufferView" : 3,
            "componentType" : 5123,
            "count" : 3636,
            "type" : "SCALAR"
        }
    ],
    "bufferViews" : [
        {
            "buffer" : 0,
            "byteLength" : 8532,
            "byteOffset" : 0
        },
        {
            "buffer" : 0,
            "byteLength" : 8532,
            "byteOffset" : 8532
        },
        {
            "buffer" : 0,
            "byteLength" : 5688,
            "byteOffset" : 17064
        },
        {
            "buffer" : 0,
            "byteLength" : 7272,
            "byteOffset" : 22752
        }
    ],
    "buffers" : [
        {
            "byteLength" : 30024,
            "uri" : "data:application/octet-stream;base64,"
        }
    ]
}
