{
    "asset" : {
        "generator" : "Khronos glTF Blender I/O v1.7.33",
        "version" : "2.0"
    },
    "scene" : 0,
    "scenes" : [
        {
            "name" : "Scene",
            "nodes" : [
                0
            ]
        }
    ],
    "nodes" : [
        {
            "mesh" : 0,
            "name" : "data",
            "rotation" : [
                0,
                0.7071067094802856,
                -0.7071068286895752,
                -1.1520230458472724e-07
            ],
            "scale" : [
                0.5498976707458496,
                0.5498976707458496,
                0.5498976707458496
            ]
        }
    ],
    "materials" : [
        {
            "alphaMode" : "BLEND",
            "doubleSided" : true,
            "emissiveFactor" : [
                0,
                0.4513777793001239,
                0.6000000238418579
            ],
            "name" : "shipmat",
            "pbrMetallicRoughness" : {
                "baseColorFactor" : [
                    0,
                    0.01463985349982977,
                    0.275709867477417,
                    1
                ],
                "metallicFactor" : 0
            }
        }
    ],
    "meshes" : [
        {
            "name" : "misc2.001",
            "primitives" : [
                {
                    "attributes" : {
                        "POSITION" : 0,
                        "NORMAL" : 1,
                        "TEXCOORD_0" : 2
                    },
                    "indices" : 3,
                    "material" : 0
                }
            ]
        }
    ],
    "accessors" : [
        {
            "bufferView" : 0,
            "componentType" : 5126,
            "count" : 3624,
            "max" : [
                12.666449546813965,
                -26.750553131103516,
                -4.92215633392334
            ],
            "min" : [
                0.8489527702331543,
                -41.456207275390625,
                -37.60131072998047
            ],
            "type" : "VEC3"
        },
        {
            "bufferView" : 1,
            "componentType" : 5126,
            "count" : 3624,
            "type" : "VEC3"
        },
        {
            "bufferView" : 2,
            "componentType" : 5126,
            "count" : 3624,
            "type" : "VEC2"
        },
        {
            "bufferView" : 3,
            "componentType" : 5123,
            "count" : 12060,
            "type" : "SCALAR"
        }
    ],
    "bufferViews" : [
        {
            "buffer" : 0,
            "byteLength" : 43488,
            "byteOffset" : 0
        },
        {
            "buffer" : 0,
            "byteLength" : 43488,
            "byteOffset" : 43488
        },
        {
            "buffer" : 0,
            "byteLength" : 28992,
            "byteOffset" : 86976
        },
        {
            "buffer" : 0,
            "byteLength" : 24120,
            "byteOffset" : 115968
        }
    ],
    "buffers" : [
        {
            "byteLength" : 140088,
            "uri" : "data:application/octet-stream;base64,"
        }
    ]
}
