{
    "asset" : {
        "generator" : "Khronos glTF Blender I/O v1.7.33",
        "version" : "2.0"
    },
    "scene" : 0,
    "scenes" : [
        {
            "name" : "Scene",
            "nodes" : [
                0
            ]
        }
    ],
    "nodes" : [
        {
            "mesh" : 0,
            "name" : "04.Skys05Plane.005",
            "rotation" : [
                0,
                -0.7121049761772156,
                0,
                0.7020729780197144
            ],
            "scale" : [
                3.6987922191619873,
                0.7025705575942993,
                5.898254871368408
            ],
            "translation" : [
                -452.9149475097656,
                8.444236755371094,
                -236.5775604248047
            ]
        }
    ],
    "materials" : [
        {
            "alphaMode" : "BLEND",
            "doubleSided" : true,
            "emissiveFactor" : [
                0,
                0.4513777793001239,
                0.6000000238418579
            ],
            "name" : "Material.001",
            "pbrMetallicRoughness" : {
                "baseColorFactor" : [
                    0,
                    0.01463985349982977,
                    0.275709867477417,
                    1
                ],
                "metallicFactor" : 0
            }
        },
        {
            "doubleSided" : true,
            "emissiveFactor" : [
                1,
                1,
                1
            ],
            "emissiveTexture" : {
                "index" : 0
            },
            "name" : "LightSkyssINGLE",
            "pbrMetallicRoughness" : {}
        }
    ],
    "meshes" : [
        {
            "name" : "04.Skys05Plane.005",
            "primitives" : [
                {
                    "attributes" : {
                        "POSITION" : 0,
                        "NORMAL" : 1,
                        "TEXCOORD_0" : 2
                    },
                    "indices" : 3,
                    "material" : 0
                },
                {
                    "attributes" : {
                        "POSITION" : 4,
                        "NORMAL" : 5,
                        "TEXCOORD_0" : 6
                    },
                    "indices" : 7,
                    "material" : 1
                }
            ]
        }
    ],
    "textures" : [
        {
            "sampler" : 0,
            "source" : 0
        }
    ],
    "images" : [
        {
            "bufferView" : 8,
            "mimeType" : "image/jpeg",
            "name" : "light2"
        }
    ],
    "accessors" : [
        {
            "bufferView" : 0,
            "componentType" : 5126,
            "count" : 4397,
            "max" : [
                1.2400462627410889,
                3.1518754959106445,
                1.0220075845718384
            ],
            "min" : [
                -1.1154489517211914,
                -2.865341901779175,
                -1.0000001192092896
            ],
            "type" : "VEC3"
        },
        {
            "bufferView" : 1,
            "componentType" : 5126,
            "count" : 4397,
            "type" : "VEC3"
        },
        {
            "bufferView" : 2,
            "componentType" : 5126,
            "count" : 4397,
            "type" : "VEC2"
        },
        {
            "bufferView" : 3,
            "componentType" : 5123,
            "count" : 8082,
            "type" : "SCALAR"
        },
        {
            "bufferView" : 4,
            "componentType" : 5126,
            "count" : 912,
            "max" : [
                1.2172614336013794,
                2.4437344074249268,
                1.013532280921936
            ],
            "min" : [
                -1.0346368551254272,
                -2.0021204948425293,
                -1.0191494226455688
            ],
            "type" : "VEC3"
        },
        {
            "bufferView" : 5,
            "componentType" : 5126,
            "count" : 912,
            "type" : "VEC3"
        },
        {
            "bufferView" : 6,
            "componentType" : 5126,
            "count" : 912,
            "type" : "VEC2"
        },
        {
            "bufferView" : 7,
            "componentType" : 5123,
            "count" : 1368,
            "type" : "SCALAR"
        }
    ],
    "bufferViews" : [
        {
            "buffer" : 0,
            "byteLength" : 52764,
            "byteOffset" : 0
        },
        {
            "buffer" : 0,
            "byteLength" : 52764,
            "byteOffset" : 52764
        },
        {
            "buffer" : 0,
            "byteLength" : 35176,
            "byteOffset" : 105528
        },
        {
            "buffer" : 0,
            "byteLength" : 16164,
            "byteOffset" : 140704
        },
        {
            "buffer" : 0,
            "byteLength" : 10944,
            "byteOffset" : 156868
        },
        {
            "buffer" : 0,
            "byteLength" : 10944,
            "byteOffset" : 167812
        },
        {
            "buffer" : 0,
            "byteLength" : 7296,
            "byteOffset" : 178756
        },
        {
            "buffer" : 0,
            "byteLength" : 2736,
            "byteOffset" : 186052
        },
        {
            "buffer" : 0,
            "byteLength" : 257647,
            "byteOffset" : 188788
        }
    ],
    "samplers" : [
        {
            "magFilter" : 9729,
            "minFilter" : 9987
        }
    ],
    "buffers" : [
        {
            "byteLength" : 446436,
            "uri" : "data:application/octet-stream;base64,"
        }
    ]
}
