{
    "asset" : {
        "generator" : "Khronos glTF Blender I/O v1.7.33",
        "version" : "2.0"
    },
    "scene" : 0,
    "scenes" : [
        {
            "name" : "Scene",
            "nodes" : [
                0
            ]
        }
    ],
    "nodes" : [
        {
            "mesh" : 0,
            "name" : "Grid.001",
            "rotation" : [
                0,
                0.989763617515564,
                0,
                -0.14271660149097443
            ],
            "scale" : [
                220.7684326171875,
                145.85536193847656,
                145.8553466796875
            ],
            "translation" : [
                -404.4698486328125,
                -4.578172206878662,
                -251.390380859375
            ]
        }
    ],
    "materials" : [
        {
            "doubleSided" : true,
            "name" : "Terrain",
            "pbrMetallicRoughness" : {
                "baseColorFactor" : [
                    0.007978719659149647,
                    0.00572190061211586,
                    0.0043159425258636475,
                    1
                ],
                "metallicFactor" : 0
            }
        }
    ],
    "meshes" : [
        {
            "name" : "Grid.001",
            "primitives" : [
                {
                    "attributes" : {
                        "POSITION" : 0,
                        "NORMAL" : 1,
                        "TEXCOORD_0" : 2
                    },
                    "indices" : 3,
                    "material" : 0
                }
            ]
        }
    ],
    "accessors" : [
        {
            "bufferView" : 0,
            "componentType" : 5126,
            "count" : 58049,
            "max" : [
                1.0468378067016602,
                0.21596552431583405,
                1.0151400566101074
            ],
            "min" : [
                -1.0468376874923706,
                -0.029998833313584328,
                -0.448568195104599
            ],
            "type" : "VEC3"
        },
        {
            "bufferView" : 1,
            "componentType" : 5126,
            "count" : 58049,
            "type" : "VEC3"
        },
        {
            "bufferView" : 2,
            "componentType" : 5126,
            "count" : 58049,
            "type" : "VEC2"
        },
        {
            "bufferView" : 3,
            "componentType" : 5123,
            "count" : 336960,
            "type" : "SCALAR"
        }
    ],
    "bufferViews" : [
        {
            "buffer" : 0,
            "byteLength" : 696588,
            "byteOffset" : 0
        },
        {
            "buffer" : 0,
            "byteLength" : 696588,
            "byteOffset" : 696588
        },
        {
            "buffer" : 0,
            "byteLength" : 464392,
            "byteOffset" : 1393176
        },
        {
            "buffer" : 0,
            "byteLength" : 673920,
            "byteOffset" : 1857568
        }
    ],
    "buffers" : [
        {
            "byteLength" : 2531488,
            "uri" : "data:application/octet-stream;base64,"
        }
    ]
}
