<svg id="Layer_1" data-name="Layer 1" xmlns="http://www.w3.org/2000/svg" viewBox="0 0 552.15814 99.50982"><defs><style>.cls-1{fill:#fff;}.cls-2{fill:#c2daef;}.cls-3{fill:#4fa6d6;}.cls-4{fill:#8ebfe2;}.cls-5{fill:none;stroke:#fff;stroke-miterlimit:10;}</style></defs><path class="cls-1" d="M1061.22754,584.78909c0,3.02441-2.29395,4.76465-6.75586,4.76465h-8.41895V571.90725h7.915c4.0586,0,6.32715,1.71485,6.32715,4.56348a4.18506,4.18506,0,0,1-2.36914,3.93262A4.26321,4.26321,0,0,1,1061.22754,584.78909Zm-12.6543-10.83887v5.64649h5.168c2.57129,0,4.0332-.959,4.0332-2.82422s-1.46191-2.82227-4.0332-2.82227Zm10.1084,10.63672c0-2.041-1.51269-2.94922-4.31055-2.94922h-5.79785v5.87305h5.79785C1057.169,587.51077,1058.68164,586.62991,1058.68164,584.58694Z" transform="translate(-684.42093 -490.24509)"/><path class="cls-1" d="M1073.28027,583.45315v6.10059h-2.49511v-6.15039l-7.00782-11.4961h2.69727l5.64648,9.30274,5.67188-9.30274h2.49512Z" transform="translate(-684.42093 -490.24509)"/><path class="cls-1" d="M1095.66992,574.10061V580.251h8.84766v2.168h-8.84766v7.13477h-2.52051V571.90725h12.45215v2.19336Z" transform="translate(-684.42093 -490.24509)"/><path class="cls-1" d="M1110.77246,581.94046V571.90725h2.52149v9.93262c0,3.90723,1.78906,5.6709,4.96582,5.6709,3.17578,0,4.99121-1.76367,4.99121-5.6709v-9.93262h2.44433v10.03321c0,5.11718-2.79785,7.81445-7.46093,7.81445C1113.5957,589.75491,1110.77246,587.05764,1110.77246,581.94046Z" transform="translate(-684.42093 -490.24509)"/><path class="cls-1" d="M1144.42969,589.55374l-3.80664-5.41993c-.35254.0254-.73145.05079-1.10938.05079h-4.36035v5.36914h-2.52148V571.90725h6.88183c4.58789,0,7.36035,2.32031,7.36035,6.15137a5.56938,5.56938,0,0,1-3.88183,5.57129l4.18457,5.92383Zm-.07617-11.49512c0-2.52051-1.68848-3.958-4.915-3.958h-4.28516V582.042h4.28516C1142.665,582.042,1144.35352,580.57913,1144.35352,578.05862Z" transform="translate(-684.42093 -490.24509)"/><path class="cls-1" d="M1152.57422,581.94046V571.90725h2.52148v9.93262c0,3.90723,1.78907,5.6709,4.96582,5.6709,3.17578,0,4.99121-1.76367,4.99121-5.6709v-9.93262h2.44434v10.03321c0,5.11718-2.79785,7.81445-7.46094,7.81445C1155.39746,589.75491,1152.57422,587.05764,1152.57422,581.94046Z" transform="translate(-684.42093 -490.24509)"/><path class="cls-1" d="M1189.6084,571.90725v17.64649H1187.542l-10.58691-13.15821v13.15821h-2.52149V571.90725h2.06739l10.58691,13.15918V571.90725Z" transform="translate(-684.42093 -490.24509)"/><path class="cls-1" d="M1195.23438,580.73049c0-5.167,3.98242-9.02441,9.40234-9.02441,5.36914,0,9.35254,3.832,9.35254,9.02441s-3.9834,9.02442-9.35254,9.02442C1199.2168,589.75491,1195.23438,585.89749,1195.23438,580.73049Zm16.23339,0a6.85687,6.85687,0,1,0-6.83105,6.78028A6.62428,6.62428,0,0,0,1211.46777,580.73049Z" transform="translate(-684.42093 -490.24509)"/><path class="cls-2" d="M719.0873,499.67713H688.777a4.35683,4.35683,0,0,1,0-8.71365H719.0873a4.35683,4.35683,0,0,1,0,8.71365Z" transform="translate(-684.42093 -490.24509)"/><path class="cls-3" d="M719.0873,551.38537H688.777a4.35683,4.35683,0,0,1,0-8.71366H719.0873a4.35683,4.35683,0,0,1,0,8.71366Z" transform="translate(-684.42093 -490.24509)"/><path class="cls-4" d="M719.0873,525.53085H688.777a4.35683,4.35683,0,0,1,0-8.71366H719.0873a4.35683,4.35683,0,0,1,0,8.71366Z" transform="translate(-684.42093 -490.24509)"/><path class="cls-1" d="M1179.85687,543.89482v-19.5241h30.32318v-7.344h-30.32318V498.45326h34.0392v-7.51681h-42.6778v60.47518h43.886v-7.51681Zm-47.94606-18.31423h-14.68792V498.45326h14.68792c11.05837,0,16.8468,4.92423,16.8468,13.56284,0,8.64025-5.78843,13.56449-16.8468,13.56449m.25926-34.64414h-23.58578v60.47518h8.6386V533.09574h14.94718c15.72332,0,25.22614-7.94725,25.22614-21.07964,0-13.13074-9.50282-21.07965-25.22614-21.07965m-70.44494,53.47688c-13.56283,0-23.58581-9.84846-23.58581-23.23846,0-13.39166,10.023-23.24013,23.58581-23.24013,13.39165,0,23.413,9.84847,23.413,23.24013,0,13.39-10.02131,23.23846-23.413,23.23846m0,7.68965c18.40231,0,32.05156-13.1324,32.05156-30.92811,0-17.79738-13.64925-30.92978-32.05156-30.92978-18.57515,0-32.2244,13.21882-32.2244,30.92978,0,17.7093,13.64925,30.92811,32.2244,30.92811m-62.71211,0c9.41637,0,17.53811-3.28393,23.06729-9.50279l-5.61561-5.44275a22.48675,22.48675,0,0,1-17.01959,7.25589c-13.64925,0-23.757-9.84846-23.757-23.23846,0-13.39166,10.10773-23.24013,23.757-23.24013a22.40279,22.40279,0,0,1,17.01959,7.17114l5.61561-5.44275c-5.52918-6.22052-13.65092-9.418-22.98087-9.418-18.40066,0-32.05158,13.046-32.05158,30.92978,0,17.88213,13.65092,30.92811,31.96516,30.92811m-64.65489,0c15.98258,0,23.413-7.9489,23.413-17.19244,0-22.20309-36.63013-12.95956-36.63013-27.73226,0-5.26991,4.40573-9.58922,14.6863-9.58922a31.23722,31.23722,0,0,1,16.58751,4.92424l2.85017-6.91188c-5.01066-3.4551-12.35464-5.35633-19.43768-5.35633-15.89616,0-23.15372,7.94892-23.15372,17.27887,0,22.46235,36.63012,13.13239,36.63012,27.9051,0,5.26991-4.49212,9.32995-14.94553,9.32995-7.7744,0-15.464-2.93659-19.95619-6.99663l-3.19751,6.73738c4.83781,4.49213,13.91017,7.60322,23.1537,7.60322m-73.10567-.69135h41.38317v-7.51681H869.89271V490.93645h-8.64025Zm-49.26894-7.51681v-19.5241H842.3067v-7.344H811.98352V498.45326h34.03921v-7.51681H803.34492v60.47518h43.88767v-7.51681Zm-48.79362,7.51681h8.55218V498.45326H792.4777v-7.51681H742.45592v7.51681h20.734Z" transform="translate(-684.42093 -490.24509)"/><path class="cls-1" d="M1231.4388,548.71637l-1.53426-2.15668a4.719,4.719,0,0,1-.53657.02873h-1.80151v2.12795h-.70966v-6.70925h2.51117c1.706,0,2.74172.86267,2.74172,2.30034a2.08,2.08,0,0,1-1.53357,2.10857l1.6388,2.30034Zm-.03878-4.40891c0-1.07349-.709-1.68691-2.05075-1.68691h-1.78281v3.36414h1.78281C1230.691,545.98469,1231.4,545.36157,1231.4,544.30746Z" transform="translate(-684.42093 -490.24509)"/><circle class="cls-5" cx="544.56845" cy="55.23441" r="7.0897"/></svg>