{
    "asset" : {
        "generator" : "Khronos glTF Blender I/O v1.7.33",
        "version" : "2.0"
    },
    "scene" : 0,
    "scenes" : [
        {
            "name" : "Scene",
            "nodes" : [
                0
            ]
        }
    ],
    "nodes" : [
        {
            "mesh" : 0,
            "name" : "sat",
            "rotation" : [
                0,
                0.6787341833114624,
                0,
                0.7343840599060059
            ],
            "scale" : [
                1.6653255224227905,
                1.665325403213501,
                1.6653255224227905
            ],
            "translation" : [
                -180.6781768798828,
                132.29351806640625,
                -135.87765502929688
            ]
        }
    ],
    "materials" : [
        {
            "alphaMode" : "BLEND",
            "doubleSided" : true,
            "emissiveFactor" : [
                0,
                0.4513777793001239,
                0.6000000238418579
            ],
            "name" : "shipmat",
            "pbrMetallicRoughness" : {
                "baseColorFactor" : [
                    0,
                    0.01463985349982977,
                    0.275709867477417,
                    1
                ],
                "metallicFactor" : 0
            }
        }
    ],
    "meshes" : [
        {
            "name" : "vertex_mesh.002",
            "primitives" : [
                {
                    "attributes" : {
                        "POSITION" : 0,
                        "NORMAL" : 1,
                        "TEXCOORD_0" : 2
                    },
                    "indices" : 3,
                    "material" : 0
                }
            ]
        }
    ],
    "accessors" : [
        {
            "bufferView" : 0,
            "componentType" : 5126,
            "count" : 18379,
            "max" : [
                2.206887722015381,
                2.60737681388855,
                9.741355895996094
            ],
            "min" : [
                -3.0577683448791504,
                -2.5360658168792725,
                -9.765640258789062
            ],
            "type" : "VEC3"
        },
        {
            "bufferView" : 1,
            "componentType" : 5126,
            "count" : 18379,
            "type" : "VEC3"
        },
        {
            "bufferView" : 2,
            "componentType" : 5126,
            "count" : 18379,
            "type" : "VEC2"
        },
        {
            "bufferView" : 3,
            "componentType" : 5123,
            "count" : 55821,
            "type" : "SCALAR"
        }
    ],
    "bufferViews" : [
        {
            "buffer" : 0,
            "byteLength" : 220548,
            "byteOffset" : 0
        },
        {
            "buffer" : 0,
            "byteLength" : 220548,
            "byteOffset" : 220548
        },
        {
            "buffer" : 0,
            "byteLength" : 147032,
            "byteOffset" : 441096
        },
        {
            "buffer" : 0,
            "byteLength" : 111642,
            "byteOffset" : 588128
        }
    ],
    "buffers" : [
        {
            "byteLength" : 699772,
            "uri" : "data:application/octet-stream;base64,"
        }
    ]
}
