{
    "asset" : {
        "generator" : "Khronos glTF Blender I/O v1.7.33",
        "version" : "2.0"
    },
    "scene" : 0,
    "scenes" : [
        {
            "name" : "Scene",
            "nodes" : [
                0
            ]
        }
    ],
    "nodes" : [
        {
            "mesh" : 0,
            "name" : "tanks",
            "rotation" : [
                -0.7010395526885986,
                -0.09243170917034149,
                0.09243172407150269,
                -0.7010394334793091
            ],
            "scale" : [
                0.4469255208969116,
                0.4469255208969116,
                0.44692549109458923
            ],
            "translation" : [
                -658.4339599609375,
                6.689414024353027,
                98.82974243164062
            ]
        }
    ],
    "materials" : [
        {
            "alphaMode" : "BLEND",
            "doubleSided" : true,
            "emissiveFactor" : [
                0,
                0.4513777793001239,
                0.6000000238418579
            ],
            "name" : "shipmat",
            "pbrMetallicRoughness" : {
                "baseColorFactor" : [
                    0,
                    0.01463985349982977,
                    0.275709867477417,
                    1
                ],
                "metallicFactor" : 0
            }
        }
    ],
    "meshes" : [
        {
            "name" : "Plane.001",
            "primitives" : [
                {
                    "attributes" : {
                        "POSITION" : 0,
                        "NORMAL" : 1,
                        "TEXCOORD_0" : 2
                    },
                    "indices" : 3,
                    "material" : 0
                }
            ]
        }
    ],
    "accessors" : [
        {
            "bufferView" : 0,
            "componentType" : 5126,
            "count" : 2960,
            "max" : [
                18.96387481689453,
                104.45722198486328,
                15.920938491821289
            ],
            "min" : [
                -18.963882446289062,
                -104.45722198486328,
                -15.921072006225586
            ],
            "type" : "VEC3"
        },
        {
            "bufferView" : 1,
            "componentType" : 5126,
            "count" : 2960,
            "type" : "VEC3"
        },
        {
            "bufferView" : 2,
            "componentType" : 5126,
            "count" : 2960,
            "type" : "VEC2"
        },
        {
            "bufferView" : 3,
            "componentType" : 5123,
            "count" : 14400,
            "type" : "SCALAR"
        }
    ],
    "bufferViews" : [
        {
            "buffer" : 0,
            "byteLength" : 35520,
            "byteOffset" : 0
        },
        {
            "buffer" : 0,
            "byteLength" : 35520,
            "byteOffset" : 35520
        },
        {
            "buffer" : 0,
            "byteLength" : 23680,
            "byteOffset" : 71040
        },
        {
            "buffer" : 0,
            "byteLength" : 28800,
            "byteOffset" : 94720
        }
    ],
    "buffers" : [
        {
            "byteLength" : 123520,
            "uri" : "data:application/octet-stream;base64,"
        }
    ]
}
